<?xml version="1.0" encoding="utf-8"?>
<!-- Generator: Adobe Illustrator 22.0.1, SVG Export Plug-In . SVG Version: 6.00 Build 0)  -->
<svg version="1.1" id="Capa_1" xmlns="http://www.w3.org/2000/svg" xmlns:xlink="http://www.w3.org/1999/xlink" x="0px" y="0px"
	 viewBox="0 0 164 55" style="enable-background:new 0 0 164 55;" xml:space="preserve">
<style type="text/css">
	.st0{fill:#717B91;}
	.st1{fill:#0093FF;}
</style>
<polygon class="st0" points="34.8,30 34.8,40 14.8,40 14.8,20 24.8,20 24.8,15 14.8,15 9.8,15 9.8,20 9.8,40 9.8,45 14.8,45 
	34.8,45 39.8,45 39.8,40 39.8,30 "/>
<polygon class="st1" points="39.8,10 29.8,10 29.8,15 39.8,15 39.8,25 44.8,25 44.8,15 44.8,10 "/>
<g>
	<path class="st0" d="M88.5,17.7l-6.7,24.7h-4.4l-5.5-19.2l-5.5,19.2h-4.4l-6.8-24.7h3.8l5.2,19.9l5.5-19.9h4.3l5.5,19.9l5.2-19.9
		H88.5z"/>
	<path class="st0" d="M92,41.3c-1.3-0.8-2.4-2-3.1-3.4c-0.7-1.4-1-3-1-4.8c0-1.8,0.3-3.4,1-4.8c0.7-1.4,1.7-2.6,3.1-3.4
		c1.3-0.8,3-1.2,5-1.2c1.9,0,3.6,0.4,4.9,1.2c1.3,0.8,2.4,2,3,3.4s1,3,1,4.8c0,1.8-0.3,3.4-1,4.8c-0.7,1.4-1.7,2.6-3,3.4
		c-1.4,0.8-3,1.3-4.9,1.3C95,42.6,93.3,42.1,92,41.3z M100.7,37.6c0.9-1.1,1.3-2.6,1.3-4.5c0-1.9-0.4-3.4-1.3-4.5
		c-0.9-1.1-2.2-1.7-3.8-1.7c-1.7,0-3,0.6-3.9,1.7c-0.9,1.1-1.3,2.6-1.3,4.5c0,1.9,0.4,3.4,1.3,4.5c0.9,1.1,2.2,1.7,3.9,1.7
		C98.6,39.3,99.8,38.7,100.7,37.6z"/>
	<path class="st0" d="M118.2,23.8v3.3h-0.7c-1.8,0-3.5,0.7-5.3,2.1V42h-3.7V24.1h3.7V26c1.7-1.5,3.4-2.3,5.3-2.3H118.2z"/>
	<path class="st0" d="M126.5,34.3l-1.8,1.9V42H121V14.8h3.7v16.8l6.9-7.2h4.5l-7.1,7.4l8,10.2h-4.4L126.5,34.3z"/>
	<path class="st0" d="M154.9,24.5l-7.7,20.7c-0.5,1.4-1,2.5-1.5,3.2c-0.5,0.7-1.1,1.2-1.8,1.5c-0.7,0.3-1.6,0.4-2.7,0.4
		c-0.8,0-1.5-0.1-2.2-0.3v-3.2c0.6,0.1,1.2,0.2,1.8,0.2c0.8,0,1.4-0.2,1.8-0.6c0.4-0.4,0.9-1.2,1.3-2.3l0.7-1.8L138,24.5h3.8l4.6,13
		l4.9-13H154.9z"/>
</g>
</svg>
